<svg width="142" height="30" viewBox="0 0 142 30" fill="none" xmlns="http://www.w3.org/2000/svg">
<path d="M45.72 24H40.92V3H50.97C52.51 3 53.81 3.3 54.87 3.9C55.93 4.5 56.72 5.3 57.24 6.3C57.76 7.3 58.02 8.39 58.02 9.57C58.02 10.71 57.75 11.79 57.21 12.81C56.69 13.81 55.9 14.63 54.84 15.27C53.78 15.89 52.49 16.2 50.97 16.2H45.72V24ZM50.67 11.85C51.45 11.85 52.07 11.66 52.53 11.28C52.99 10.88 53.22 10.32 53.22 9.6C53.22 8.88 52.99 8.33 52.53 7.95C52.07 7.55 51.45 7.35 50.67 7.35H45.72V11.85H50.67ZM64.1545 24.3C63.3145 24.3 62.5345 24.12 61.8145 23.76C61.1145 23.38 60.5545 22.86 60.1345 22.2C59.7145 21.52 59.5045 20.73 59.5045 19.83C59.5045 18.35 59.9945 17.23 60.9745 16.47C61.9745 15.69 63.3645 15.3 65.1445 15.3C65.9245 15.3 66.7045 15.39 67.4845 15.57L68.5045 15.81V15.09C68.5045 14.41 68.2845 13.88 67.8445 13.5C67.4245 13.12 66.8145 12.93 66.0145 12.93C65.2545 12.93 64.6445 13.11 64.1845 13.47C63.7245 13.81 63.4245 14.27 63.2845 14.85L59.4745 13.83C59.9145 12.49 60.6945 11.43 61.8145 10.65C62.9345 9.87 64.3445 9.48 66.0445 9.48C68.3245 9.48 70.0245 9.98 71.1445 10.98C72.2845 11.98 72.8545 13.43 72.8545 15.33V24H68.8045V22.05C68.2045 22.87 67.5545 23.45 66.8545 23.79C66.1545 24.13 65.2545 24.3 64.1545 24.3ZM65.9545 21.12C66.6945 21.12 67.3045 20.92 67.7845 20.52C68.2645 20.12 68.5045 19.58 68.5045 18.9V18.81L67.9345 18.57C67.2745 18.29 66.5845 18.15 65.8645 18.15C65.2845 18.15 64.8245 18.28 64.4845 18.54C64.1645 18.8 64.0045 19.17 64.0045 19.65C64.0045 20.11 64.1745 20.47 64.5145 20.73C64.8545 20.99 65.3345 21.12 65.9545 21.12ZM90.1561 9.78L80.3461 29.94H75.8461L79.6561 22.11L73.8961 9.78H78.5461L81.9961 17.31L85.6561 9.78H90.1561ZM96.5353 9.78V11.55C97.0953 10.93 97.7553 10.43 98.5153 10.05C99.2953 9.67 100.135 9.48 101.035 9.48C102.295 9.48 103.445 9.79 104.485 10.41C105.545 11.01 106.385 11.88 107.005 13.02C107.625 14.14 107.935 15.45 107.935 16.95C107.935 18.45 107.625 19.76 107.005 20.88C106.385 21.98 105.535 22.83 104.455 23.43C103.395 24.01 102.205 24.3 100.885 24.3C99.8853 24.3 99.0153 24.12 98.2753 23.76C97.5353 23.38 97.0053 22.91 96.6853 22.35V29.94H92.1853V9.78H96.5353ZM96.5353 16.95C96.5353 18.09 96.8653 18.98 97.5253 19.62C98.2053 20.24 99.0253 20.55 99.9853 20.55C100.945 20.55 101.755 20.24 102.415 19.62C103.095 18.98 103.435 18.09 103.435 16.95C103.435 15.75 103.105 14.83 102.445 14.19C101.785 13.55 100.965 13.23 99.9853 13.23C99.0053 13.23 98.1853 13.55 97.5253 14.19C96.8653 14.83 96.5353 15.75 96.5353 16.95ZM117.602 20.43C118.382 20.43 118.982 20.27 119.402 19.95C119.842 19.61 120.172 19.15 120.392 18.57L124.202 20.07C123.722 21.37 122.902 22.4 121.742 23.16C120.602 23.92 119.202 24.3 117.542 24.3C116.082 24.3 114.772 23.99 113.612 23.37C112.452 22.73 111.532 21.85 110.852 20.73C110.192 19.59 109.862 18.28 109.862 16.8C109.862 15.46 110.162 14.23 110.762 13.11C111.382 11.99 112.242 11.11 113.342 10.47C114.442 9.81 115.692 9.48 117.092 9.48C119.172 9.48 120.812 10.08 122.012 11.28C123.232 12.46 123.842 14.04 123.842 16.02C123.842 16.6 123.782 17.21 123.662 17.85H114.362C114.442 18.61 114.772 19.23 115.352 19.71C115.952 20.19 116.702 20.43 117.602 20.43ZM117.092 12.99C116.512 12.99 115.962 13.15 115.442 13.47C114.942 13.79 114.582 14.25 114.362 14.85H119.522C119.522 14.31 119.302 13.87 118.862 13.53C118.442 13.17 117.852 12.99 117.092 12.99ZM133.686 20.43C134.466 20.43 135.066 20.27 135.486 19.95C135.926 19.61 136.256 19.15 136.476 18.57L140.286 20.07C139.806 21.37 138.986 22.4 137.826 23.16C136.686 23.92 135.286 24.3 133.626 24.3C132.166 24.3 130.856 23.99 129.696 23.37C128.536 22.73 127.616 21.85 126.936 20.73C126.276 19.59 125.946 18.28 125.946 16.8C125.946 15.46 126.246 14.23 126.846 13.11C127.466 11.99 128.326 11.11 129.426 10.47C130.526 9.81 131.776 9.48 133.176 9.48C135.256 9.48 136.896 10.08 138.096 11.28C139.316 12.46 139.926 14.04 139.926 16.02C139.926 16.6 139.866 17.21 139.746 17.85H130.446C130.526 18.61 130.856 19.23 131.436 19.71C132.036 20.19 132.786 20.43 133.686 20.43ZM133.176 12.99C132.596 12.99 132.046 13.15 131.526 13.47C131.026 13.79 130.666 14.25 130.446 14.85H135.606C135.606 14.31 135.386 13.87 134.946 13.53C134.526 13.17 133.936 12.99 133.176 12.99Z" fill="white"/>
<rect width="30" height="30" rx="5" fill="white"/>
<path d="M8 13.1691V8.59665H12.1822V14.4796H15.5558C16.5316 14.4796 17.3123 14.2286 17.8978 13.671C18.4554 13.1413 18.7621 12.4164 18.7621 11.4963C18.7621 10.5762 18.4554 9.8513 17.8978 9.29368C17.3123 8.76394 16.5316 8.48513 15.5558 8.48513H12.3618V5L15.9461 5C17.3401 5 18.5669 5.27881 19.6264 5.80855C20.6859 6.33829 21.5223 7.09108 22.1078 8.06692C22.6933 9.07063 23 10.2138 23 11.4963C23 12.8067 22.6933 13.9498 22.1078 14.9257C21.5223 15.9015 20.6859 16.6543 19.6264 17.184C18.5669 17.7138 17.3401 17.9647 15.9461 17.9647H12.1822V24.5167H8V16.5985H10.8005V13.1691H8Z" fill="#3E41FA"/>
</svg>
